<mxfile host="app.diagrams.net" modified="2022-06-25T07:06:14.978Z" agent="5.0 (Windows NT 10.0; Win64; x64) AppleWebKit/537.36 (KHTML, like Gecko) Chrome/100.0.4896.88 Safari/537.36" etag="A4_LJJGMzS_SybTc1U9c" version="15.5.2" type="github">
  <diagram name="Page-1" id="97916047-d0de-89f5-080d-49f4d83e522f">
    <mxGraphModel dx="2844" dy="1524" grid="1" gridSize="10" guides="1" tooltips="1" connect="1" arrows="1" fold="1" page="1" pageScale="1.5" pageWidth="1169" pageHeight="827" background="none" math="0" shadow="0">
      <root>
        <mxCell id="0" />
        <mxCell id="1" parent="0" />
        <mxCell id="2" value="P" style="rounded=1;fillColor=#ffe6cc;strokeColor=#d79b00;shadow=1;fontStyle=1;fontSize=34;" parent="1" vertex="1">
          <mxGeometry x="580" y="270" width="100" height="44.5" as="geometry" />
        </mxCell>
        <mxCell id="k2UsZDqhjjsiYEmqu0vV-131" style="edgeStyle=orthogonalEdgeStyle;rounded=0;orthogonalLoop=1;jettySize=auto;html=1;exitX=0.5;exitY=1;exitDx=0;exitDy=0;entryX=0.5;entryY=0;entryDx=0;entryDy=0;fontSize=18;fontColor=#0D0D0D;startArrow=none;startFill=0;endArrow=classic;endFill=1;" edge="1" parent="1" source="k2UsZDqhjjsiYEmqu0vV-65" target="k2UsZDqhjjsiYEmqu0vV-92">
          <mxGeometry relative="1" as="geometry" />
        </mxCell>
        <mxCell id="k2UsZDqhjjsiYEmqu0vV-133" style="edgeStyle=orthogonalEdgeStyle;rounded=0;orthogonalLoop=1;jettySize=auto;html=1;exitX=0.5;exitY=0;exitDx=0;exitDy=0;entryX=0.5;entryY=1;entryDx=0;entryDy=0;fontSize=18;fontColor=#0D0D0D;startArrow=classic;startFill=1;endArrow=none;endFill=0;" edge="1" parent="1" source="k2UsZDqhjjsiYEmqu0vV-65" target="2">
          <mxGeometry relative="1" as="geometry">
            <Array as="points">
              <mxPoint x="336" y="350" />
              <mxPoint x="630" y="350" />
            </Array>
          </mxGeometry>
        </mxCell>
        <mxCell id="k2UsZDqhjjsiYEmqu0vV-65" value="Character&#xa;Embedding" style="rounded=1;fillColor=#dae8fc;strokeColor=#6c8ebf;shadow=1;fontStyle=1;fontSize=18;" vertex="1" parent="1">
          <mxGeometry x="281" y="390" width="110" height="50" as="geometry" />
        </mxCell>
        <mxCell id="k2UsZDqhjjsiYEmqu0vV-118" style="edgeStyle=orthogonalEdgeStyle;rounded=0;orthogonalLoop=1;jettySize=auto;html=1;exitX=0.5;exitY=1;exitDx=0;exitDy=0;entryX=0.5;entryY=0;entryDx=0;entryDy=0;fontSize=18;fontColor=#0D0D0D;" edge="1" parent="1" source="k2UsZDqhjjsiYEmqu0vV-89" target="k2UsZDqhjjsiYEmqu0vV-94">
          <mxGeometry relative="1" as="geometry" />
        </mxCell>
        <mxCell id="k2UsZDqhjjsiYEmqu0vV-134" style="edgeStyle=orthogonalEdgeStyle;rounded=0;orthogonalLoop=1;jettySize=auto;html=1;exitX=0.5;exitY=0;exitDx=0;exitDy=0;fontSize=18;fontColor=#0D0D0D;startArrow=classic;startFill=1;endArrow=none;endFill=0;" edge="1" parent="1" source="k2UsZDqhjjsiYEmqu0vV-89">
          <mxGeometry relative="1" as="geometry">
            <mxPoint x="630" y="320" as="targetPoint" />
            <Array as="points">
              <mxPoint x="542" y="350" />
              <mxPoint x="630" y="350" />
            </Array>
          </mxGeometry>
        </mxCell>
        <mxCell id="k2UsZDqhjjsiYEmqu0vV-89" value="Pinyin&#xa;Embedding" style="rounded=1;fillColor=#dae8fc;strokeColor=#6c8ebf;shadow=1;fontStyle=1;fontSize=18;" vertex="1" parent="1">
          <mxGeometry x="487" y="390" width="110" height="50" as="geometry" />
        </mxCell>
        <mxCell id="k2UsZDqhjjsiYEmqu0vV-121" style="edgeStyle=orthogonalEdgeStyle;rounded=0;orthogonalLoop=1;jettySize=auto;html=1;exitX=0.5;exitY=1;exitDx=0;exitDy=0;entryX=0.5;entryY=0;entryDx=0;entryDy=0;fontSize=18;fontColor=#0D0D0D;" edge="1" parent="1" source="k2UsZDqhjjsiYEmqu0vV-90" target="k2UsZDqhjjsiYEmqu0vV-95">
          <mxGeometry relative="1" as="geometry" />
        </mxCell>
        <mxCell id="k2UsZDqhjjsiYEmqu0vV-135" style="edgeStyle=orthogonalEdgeStyle;rounded=0;orthogonalLoop=1;jettySize=auto;html=1;exitX=0.5;exitY=0;exitDx=0;exitDy=0;fontSize=18;fontColor=#0D0D0D;startArrow=classic;startFill=1;endArrow=none;endFill=0;" edge="1" parent="1" source="k2UsZDqhjjsiYEmqu0vV-90">
          <mxGeometry relative="1" as="geometry">
            <mxPoint x="630" y="320" as="targetPoint" />
            <Array as="points">
              <mxPoint x="745" y="350" />
              <mxPoint x="630" y="350" />
            </Array>
          </mxGeometry>
        </mxCell>
        <mxCell id="k2UsZDqhjjsiYEmqu0vV-90" value="Radical&#xa;Embedding" style="rounded=1;fillColor=#dae8fc;strokeColor=#6c8ebf;shadow=1;fontStyle=1;fontSize=18;" vertex="1" parent="1">
          <mxGeometry x="690" y="390" width="110" height="50" as="geometry" />
        </mxCell>
        <mxCell id="k2UsZDqhjjsiYEmqu0vV-124" style="edgeStyle=orthogonalEdgeStyle;rounded=0;orthogonalLoop=1;jettySize=auto;html=1;exitX=0.5;exitY=1;exitDx=0;exitDy=0;entryX=0.5;entryY=0;entryDx=0;entryDy=0;fontSize=18;fontColor=#0D0D0D;" edge="1" parent="1" source="k2UsZDqhjjsiYEmqu0vV-91" target="k2UsZDqhjjsiYEmqu0vV-104">
          <mxGeometry relative="1" as="geometry" />
        </mxCell>
        <mxCell id="k2UsZDqhjjsiYEmqu0vV-136" style="edgeStyle=orthogonalEdgeStyle;rounded=0;orthogonalLoop=1;jettySize=auto;html=1;exitX=0.5;exitY=0;exitDx=0;exitDy=0;fontSize=18;fontColor=#0D0D0D;startArrow=classic;startFill=1;endArrow=none;endFill=0;" edge="1" parent="1" source="k2UsZDqhjjsiYEmqu0vV-91">
          <mxGeometry relative="1" as="geometry">
            <mxPoint x="630" y="320" as="targetPoint" />
            <Array as="points">
              <mxPoint x="955" y="350" />
              <mxPoint x="630" y="350" />
            </Array>
          </mxGeometry>
        </mxCell>
        <mxCell id="k2UsZDqhjjsiYEmqu0vV-91" value="Word&#xa;Embedding" style="rounded=1;fillColor=#dae8fc;strokeColor=#6c8ebf;shadow=1;fontStyle=1;fontSize=18;" vertex="1" parent="1">
          <mxGeometry x="900" y="390" width="110" height="50" as="geometry" />
        </mxCell>
        <mxCell id="k2UsZDqhjjsiYEmqu0vV-119" style="edgeStyle=orthogonalEdgeStyle;rounded=0;orthogonalLoop=1;jettySize=auto;html=1;exitX=0.5;exitY=1;exitDx=0;exitDy=0;fontSize=18;fontColor=#0D0D0D;" edge="1" parent="1" source="k2UsZDqhjjsiYEmqu0vV-94" target="k2UsZDqhjjsiYEmqu0vV-100">
          <mxGeometry relative="1" as="geometry" />
        </mxCell>
        <mxCell id="k2UsZDqhjjsiYEmqu0vV-94" value="LSTM" style="rounded=1;fillColor=#0050ef;strokeColor=#001DBC;shadow=1;fontStyle=1;fontSize=18;fontColor=#ffffff;" vertex="1" parent="1">
          <mxGeometry x="487" y="490" width="110" height="50" as="geometry" />
        </mxCell>
        <mxCell id="k2UsZDqhjjsiYEmqu0vV-122" style="edgeStyle=orthogonalEdgeStyle;rounded=0;orthogonalLoop=1;jettySize=auto;html=1;exitX=0.5;exitY=1;exitDx=0;exitDy=0;entryX=0.5;entryY=0;entryDx=0;entryDy=0;fontSize=18;fontColor=#0D0D0D;" edge="1" parent="1" source="k2UsZDqhjjsiYEmqu0vV-95" target="k2UsZDqhjjsiYEmqu0vV-102">
          <mxGeometry relative="1" as="geometry" />
        </mxCell>
        <mxCell id="k2UsZDqhjjsiYEmqu0vV-95" value="LSTM" style="rounded=1;fillColor=#0050ef;strokeColor=#001DBC;shadow=1;fontStyle=1;fontSize=18;fontColor=#ffffff;" vertex="1" parent="1">
          <mxGeometry x="690" y="490" width="110" height="50" as="geometry" />
        </mxCell>
        <mxCell id="k2UsZDqhjjsiYEmqu0vV-98" value="" style="group" vertex="1" connectable="0" parent="1">
          <mxGeometry x="210" y="490" width="240" height="50" as="geometry" />
        </mxCell>
        <mxCell id="k2UsZDqhjjsiYEmqu0vV-92" value="LSTM" style="rounded=1;fillColor=#0050ef;strokeColor=#001DBC;shadow=1;fontStyle=1;fontSize=18;fontColor=#ffffff;" vertex="1" parent="k2UsZDqhjjsiYEmqu0vV-98">
          <mxGeometry width="110" height="50" as="geometry" />
        </mxCell>
        <mxCell id="k2UsZDqhjjsiYEmqu0vV-93" value="LSTM" style="rounded=1;fillColor=#0050ef;strokeColor=#001DBC;shadow=1;fontStyle=1;fontSize=18;fontColor=#ffffff;" vertex="1" parent="k2UsZDqhjjsiYEmqu0vV-98">
          <mxGeometry x="130" width="110" height="50" as="geometry" />
        </mxCell>
        <mxCell id="k2UsZDqhjjsiYEmqu0vV-120" style="edgeStyle=orthogonalEdgeStyle;rounded=0;orthogonalLoop=1;jettySize=auto;html=1;exitX=0.5;exitY=1;exitDx=0;exitDy=0;entryX=0.5;entryY=0;entryDx=0;entryDy=0;fontSize=18;fontColor=#0D0D0D;" edge="1" parent="1" source="k2UsZDqhjjsiYEmqu0vV-100" target="k2UsZDqhjjsiYEmqu0vV-101">
          <mxGeometry relative="1" as="geometry" />
        </mxCell>
        <mxCell id="k2UsZDqhjjsiYEmqu0vV-100" value="LSTM" style="rounded=1;fillColor=#0050ef;strokeColor=#001DBC;shadow=1;fontStyle=1;fontSize=18;fontColor=#ffffff;" vertex="1" parent="1">
          <mxGeometry x="487" y="590" width="110" height="50" as="geometry" />
        </mxCell>
        <mxCell id="k2UsZDqhjjsiYEmqu0vV-128" style="edgeStyle=orthogonalEdgeStyle;rounded=0;orthogonalLoop=1;jettySize=auto;html=1;exitX=0.5;exitY=1;exitDx=0;exitDy=0;fontSize=18;fontColor=#0D0D0D;entryX=0.5;entryY=0;entryDx=0;entryDy=0;" edge="1" parent="1" source="k2UsZDqhjjsiYEmqu0vV-101" target="k2UsZDqhjjsiYEmqu0vV-111">
          <mxGeometry relative="1" as="geometry">
            <mxPoint x="640" y="800" as="targetPoint" />
          </mxGeometry>
        </mxCell>
        <mxCell id="k2UsZDqhjjsiYEmqu0vV-101" value="Attention" style="rounded=1;fillColor=#60a917;strokeColor=#2D7600;shadow=1;fontStyle=1;fontSize=18;fontColor=#ffffff;" vertex="1" parent="1">
          <mxGeometry x="487" y="690" width="110" height="50" as="geometry" />
        </mxCell>
        <mxCell id="k2UsZDqhjjsiYEmqu0vV-123" style="edgeStyle=orthogonalEdgeStyle;rounded=0;orthogonalLoop=1;jettySize=auto;html=1;exitX=0.5;exitY=1;exitDx=0;exitDy=0;entryX=0.5;entryY=0;entryDx=0;entryDy=0;fontSize=18;fontColor=#0D0D0D;" edge="1" parent="1" source="k2UsZDqhjjsiYEmqu0vV-102" target="k2UsZDqhjjsiYEmqu0vV-103">
          <mxGeometry relative="1" as="geometry" />
        </mxCell>
        <mxCell id="k2UsZDqhjjsiYEmqu0vV-102" value="LSTM" style="rounded=1;fillColor=#0050ef;strokeColor=#001DBC;shadow=1;fontStyle=1;fontSize=18;fontColor=#ffffff;" vertex="1" parent="1">
          <mxGeometry x="690" y="590" width="110" height="50" as="geometry" />
        </mxCell>
        <mxCell id="k2UsZDqhjjsiYEmqu0vV-129" style="edgeStyle=orthogonalEdgeStyle;rounded=0;orthogonalLoop=1;jettySize=auto;html=1;exitX=0.5;exitY=1;exitDx=0;exitDy=0;fontSize=18;fontColor=#0D0D0D;entryX=0.5;entryY=0;entryDx=0;entryDy=0;" edge="1" parent="1" source="k2UsZDqhjjsiYEmqu0vV-103" target="k2UsZDqhjjsiYEmqu0vV-111">
          <mxGeometry relative="1" as="geometry">
            <mxPoint x="640" y="800" as="targetPoint" />
          </mxGeometry>
        </mxCell>
        <mxCell id="k2UsZDqhjjsiYEmqu0vV-103" value="Attention" style="rounded=1;fillColor=#60a917;strokeColor=#2D7600;shadow=1;fontStyle=1;fontSize=18;fontColor=#ffffff;" vertex="1" parent="1">
          <mxGeometry x="690" y="690" width="110" height="50" as="geometry" />
        </mxCell>
        <mxCell id="k2UsZDqhjjsiYEmqu0vV-125" style="edgeStyle=orthogonalEdgeStyle;rounded=0;orthogonalLoop=1;jettySize=auto;html=1;exitX=0.5;exitY=1;exitDx=0;exitDy=0;fontSize=18;fontColor=#0D0D0D;" edge="1" parent="1" source="k2UsZDqhjjsiYEmqu0vV-104" target="k2UsZDqhjjsiYEmqu0vV-108">
          <mxGeometry relative="1" as="geometry" />
        </mxCell>
        <mxCell id="k2UsZDqhjjsiYEmqu0vV-104" value="LSTM" style="rounded=1;fillColor=#0050ef;strokeColor=#001DBC;shadow=1;fontStyle=1;fontSize=18;fontColor=#ffffff;" vertex="1" parent="1">
          <mxGeometry x="900" y="490" width="110" height="50" as="geometry" />
        </mxCell>
        <mxCell id="k2UsZDqhjjsiYEmqu0vV-116" style="edgeStyle=orthogonalEdgeStyle;rounded=0;orthogonalLoop=1;jettySize=auto;html=1;exitX=0.5;exitY=1;exitDx=0;exitDy=0;fontSize=18;fontColor=#0D0D0D;" edge="1" parent="1" source="k2UsZDqhjjsiYEmqu0vV-105" target="k2UsZDqhjjsiYEmqu0vV-110">
          <mxGeometry relative="1" as="geometry" />
        </mxCell>
        <mxCell id="k2UsZDqhjjsiYEmqu0vV-105" value="Attention" style="rounded=1;fillColor=#60a917;strokeColor=#2D7600;shadow=1;fontStyle=1;fontSize=18;fontColor=#ffffff;" vertex="1" parent="1">
          <mxGeometry x="210" y="590" width="110" height="50" as="geometry" />
        </mxCell>
        <mxCell id="k2UsZDqhjjsiYEmqu0vV-117" style="edgeStyle=orthogonalEdgeStyle;rounded=0;orthogonalLoop=1;jettySize=auto;html=1;exitX=0.5;exitY=1;exitDx=0;exitDy=0;fontSize=18;fontColor=#0D0D0D;entryX=0.5;entryY=0;entryDx=0;entryDy=0;" edge="1" parent="1" source="k2UsZDqhjjsiYEmqu0vV-106" target="k2UsZDqhjjsiYEmqu0vV-110">
          <mxGeometry relative="1" as="geometry">
            <mxPoint x="340" y="690" as="targetPoint" />
          </mxGeometry>
        </mxCell>
        <mxCell id="k2UsZDqhjjsiYEmqu0vV-106" value="LSTM" style="rounded=1;fillColor=#0050ef;strokeColor=#001DBC;shadow=1;fontStyle=1;fontSize=18;fontColor=#ffffff;" vertex="1" parent="1">
          <mxGeometry x="340" y="590" width="110" height="50" as="geometry" />
        </mxCell>
        <mxCell id="k2UsZDqhjjsiYEmqu0vV-126" style="edgeStyle=orthogonalEdgeStyle;rounded=0;orthogonalLoop=1;jettySize=auto;html=1;exitX=0.5;exitY=1;exitDx=0;exitDy=0;fontSize=18;fontColor=#0D0D0D;" edge="1" parent="1" source="k2UsZDqhjjsiYEmqu0vV-108" target="k2UsZDqhjjsiYEmqu0vV-109">
          <mxGeometry relative="1" as="geometry" />
        </mxCell>
        <mxCell id="k2UsZDqhjjsiYEmqu0vV-108" value="LSTM" style="rounded=1;fillColor=#0050ef;strokeColor=#001DBC;shadow=1;fontStyle=1;fontSize=18;fontColor=#ffffff;" vertex="1" parent="1">
          <mxGeometry x="900" y="590" width="110" height="50" as="geometry" />
        </mxCell>
        <mxCell id="k2UsZDqhjjsiYEmqu0vV-130" style="edgeStyle=orthogonalEdgeStyle;rounded=0;orthogonalLoop=1;jettySize=auto;html=1;exitX=0.5;exitY=1;exitDx=0;exitDy=0;fontSize=18;fontColor=#0D0D0D;entryX=0.5;entryY=0;entryDx=0;entryDy=0;" edge="1" parent="1" source="k2UsZDqhjjsiYEmqu0vV-109" target="k2UsZDqhjjsiYEmqu0vV-111">
          <mxGeometry relative="1" as="geometry">
            <mxPoint x="640" y="800" as="targetPoint" />
          </mxGeometry>
        </mxCell>
        <mxCell id="k2UsZDqhjjsiYEmqu0vV-109" value="Attention" style="rounded=1;fillColor=#60a917;strokeColor=#2D7600;shadow=1;fontStyle=1;fontSize=18;fontColor=#ffffff;" vertex="1" parent="1">
          <mxGeometry x="900" y="690" width="110" height="50" as="geometry" />
        </mxCell>
        <mxCell id="k2UsZDqhjjsiYEmqu0vV-127" style="edgeStyle=orthogonalEdgeStyle;rounded=0;orthogonalLoop=1;jettySize=auto;html=1;exitX=0.5;exitY=1;exitDx=0;exitDy=0;fontSize=18;fontColor=#0D0D0D;" edge="1" parent="1" source="k2UsZDqhjjsiYEmqu0vV-110" target="k2UsZDqhjjsiYEmqu0vV-111">
          <mxGeometry relative="1" as="geometry" />
        </mxCell>
        <mxCell id="k2UsZDqhjjsiYEmqu0vV-110" value="Add" style="rounded=1;fillColor=#60a917;strokeColor=#2D7600;shadow=1;fontStyle=1;fontSize=18;fontColor=#ffffff;" vertex="1" parent="1">
          <mxGeometry x="281" y="690" width="110" height="50" as="geometry" />
        </mxCell>
        <mxCell id="k2UsZDqhjjsiYEmqu0vV-111" value="Add" style="rounded=1;fillColor=#a20025;strokeColor=#6F0000;shadow=1;fontStyle=1;fontSize=18;fontColor=#ffffff;" vertex="1" parent="1">
          <mxGeometry x="590" y="800" width="110" height="50" as="geometry" />
        </mxCell>
        <mxCell id="k2UsZDqhjjsiYEmqu0vV-113" style="edgeStyle=orthogonalEdgeStyle;rounded=0;orthogonalLoop=1;jettySize=auto;html=1;exitX=0.5;exitY=0;exitDx=0;exitDy=0;fontSize=18;fontColor=#0D0D0D;endArrow=none;endFill=0;entryX=0.5;entryY=1;entryDx=0;entryDy=0;startArrow=classic;startFill=1;" edge="1" parent="1" source="k2UsZDqhjjsiYEmqu0vV-93" target="k2UsZDqhjjsiYEmqu0vV-65">
          <mxGeometry relative="1" as="geometry">
            <mxPoint x="330" y="450" as="targetPoint" />
          </mxGeometry>
        </mxCell>
        <mxCell id="k2UsZDqhjjsiYEmqu0vV-114" style="edgeStyle=orthogonalEdgeStyle;rounded=0;orthogonalLoop=1;jettySize=auto;html=1;exitX=0.5;exitY=1;exitDx=0;exitDy=0;fontSize=18;fontColor=#0D0D0D;" edge="1" parent="1" source="k2UsZDqhjjsiYEmqu0vV-92" target="k2UsZDqhjjsiYEmqu0vV-105">
          <mxGeometry relative="1" as="geometry" />
        </mxCell>
        <mxCell id="k2UsZDqhjjsiYEmqu0vV-115" style="edgeStyle=orthogonalEdgeStyle;rounded=0;orthogonalLoop=1;jettySize=auto;html=1;exitX=0.5;exitY=1;exitDx=0;exitDy=0;entryX=0.5;entryY=0;entryDx=0;entryDy=0;fontSize=18;fontColor=#0D0D0D;" edge="1" parent="1" source="k2UsZDqhjjsiYEmqu0vV-93" target="k2UsZDqhjjsiYEmqu0vV-106">
          <mxGeometry relative="1" as="geometry" />
        </mxCell>
        <mxCell id="k2UsZDqhjjsiYEmqu0vV-140" value="Q" style="rounded=1;fillColor=#ffe6cc;strokeColor=#d79b00;shadow=1;fontStyle=1;fontSize=34;" vertex="1" parent="1">
          <mxGeometry x="1430" y="270" width="100" height="44.5" as="geometry" />
        </mxCell>
        <mxCell id="k2UsZDqhjjsiYEmqu0vV-141" style="edgeStyle=orthogonalEdgeStyle;rounded=0;orthogonalLoop=1;jettySize=auto;html=1;exitX=0.5;exitY=1;exitDx=0;exitDy=0;entryX=0.5;entryY=0;entryDx=0;entryDy=0;fontSize=18;fontColor=#0D0D0D;startArrow=none;startFill=0;endArrow=classic;endFill=1;" edge="1" parent="1" source="k2UsZDqhjjsiYEmqu0vV-143" target="k2UsZDqhjjsiYEmqu0vV-158">
          <mxGeometry relative="1" as="geometry" />
        </mxCell>
        <mxCell id="k2UsZDqhjjsiYEmqu0vV-142" style="edgeStyle=orthogonalEdgeStyle;rounded=0;orthogonalLoop=1;jettySize=auto;html=1;exitX=0.5;exitY=0;exitDx=0;exitDy=0;entryX=0.5;entryY=1;entryDx=0;entryDy=0;fontSize=18;fontColor=#0D0D0D;startArrow=classic;startFill=1;endArrow=none;endFill=0;" edge="1" parent="1" source="k2UsZDqhjjsiYEmqu0vV-143" target="k2UsZDqhjjsiYEmqu0vV-140">
          <mxGeometry relative="1" as="geometry">
            <Array as="points">
              <mxPoint x="1186" y="350" />
              <mxPoint x="1480" y="350" />
            </Array>
          </mxGeometry>
        </mxCell>
        <mxCell id="k2UsZDqhjjsiYEmqu0vV-143" value="Character&#xa;Embedding" style="rounded=1;fillColor=#dae8fc;strokeColor=#6c8ebf;shadow=1;fontStyle=1;fontSize=18;" vertex="1" parent="1">
          <mxGeometry x="1131" y="390" width="110" height="50" as="geometry" />
        </mxCell>
        <mxCell id="k2UsZDqhjjsiYEmqu0vV-144" style="edgeStyle=orthogonalEdgeStyle;rounded=0;orthogonalLoop=1;jettySize=auto;html=1;exitX=0.5;exitY=1;exitDx=0;exitDy=0;entryX=0.5;entryY=0;entryDx=0;entryDy=0;fontSize=18;fontColor=#0D0D0D;" edge="1" parent="1" source="k2UsZDqhjjsiYEmqu0vV-146" target="k2UsZDqhjjsiYEmqu0vV-154">
          <mxGeometry relative="1" as="geometry" />
        </mxCell>
        <mxCell id="k2UsZDqhjjsiYEmqu0vV-145" style="edgeStyle=orthogonalEdgeStyle;rounded=0;orthogonalLoop=1;jettySize=auto;html=1;exitX=0.5;exitY=0;exitDx=0;exitDy=0;fontSize=18;fontColor=#0D0D0D;startArrow=classic;startFill=1;endArrow=none;endFill=0;" edge="1" parent="1" source="k2UsZDqhjjsiYEmqu0vV-146">
          <mxGeometry relative="1" as="geometry">
            <mxPoint x="1480" y="320" as="targetPoint" />
            <Array as="points">
              <mxPoint x="1392" y="350" />
              <mxPoint x="1480" y="350" />
            </Array>
          </mxGeometry>
        </mxCell>
        <mxCell id="k2UsZDqhjjsiYEmqu0vV-146" value="Pinyin&#xa;Embedding" style="rounded=1;fillColor=#dae8fc;strokeColor=#6c8ebf;shadow=1;fontStyle=1;fontSize=18;" vertex="1" parent="1">
          <mxGeometry x="1337" y="390" width="110" height="50" as="geometry" />
        </mxCell>
        <mxCell id="k2UsZDqhjjsiYEmqu0vV-147" style="edgeStyle=orthogonalEdgeStyle;rounded=0;orthogonalLoop=1;jettySize=auto;html=1;exitX=0.5;exitY=1;exitDx=0;exitDy=0;entryX=0.5;entryY=0;entryDx=0;entryDy=0;fontSize=18;fontColor=#0D0D0D;" edge="1" parent="1" source="k2UsZDqhjjsiYEmqu0vV-149" target="k2UsZDqhjjsiYEmqu0vV-156">
          <mxGeometry relative="1" as="geometry" />
        </mxCell>
        <mxCell id="k2UsZDqhjjsiYEmqu0vV-148" style="edgeStyle=orthogonalEdgeStyle;rounded=0;orthogonalLoop=1;jettySize=auto;html=1;exitX=0.5;exitY=0;exitDx=0;exitDy=0;fontSize=18;fontColor=#0D0D0D;startArrow=classic;startFill=1;endArrow=none;endFill=0;" edge="1" parent="1" source="k2UsZDqhjjsiYEmqu0vV-149">
          <mxGeometry relative="1" as="geometry">
            <mxPoint x="1480" y="320" as="targetPoint" />
            <Array as="points">
              <mxPoint x="1595" y="350" />
              <mxPoint x="1480" y="350" />
            </Array>
          </mxGeometry>
        </mxCell>
        <mxCell id="k2UsZDqhjjsiYEmqu0vV-149" value="Radical&#xa;Embedding" style="rounded=1;fillColor=#dae8fc;strokeColor=#6c8ebf;shadow=1;fontStyle=1;fontSize=18;" vertex="1" parent="1">
          <mxGeometry x="1540" y="390" width="110" height="50" as="geometry" />
        </mxCell>
        <mxCell id="k2UsZDqhjjsiYEmqu0vV-150" style="edgeStyle=orthogonalEdgeStyle;rounded=0;orthogonalLoop=1;jettySize=auto;html=1;exitX=0.5;exitY=1;exitDx=0;exitDy=0;entryX=0.5;entryY=0;entryDx=0;entryDy=0;fontSize=18;fontColor=#0D0D0D;" edge="1" parent="1" source="k2UsZDqhjjsiYEmqu0vV-152" target="k2UsZDqhjjsiYEmqu0vV-169">
          <mxGeometry relative="1" as="geometry" />
        </mxCell>
        <mxCell id="k2UsZDqhjjsiYEmqu0vV-151" style="edgeStyle=orthogonalEdgeStyle;rounded=0;orthogonalLoop=1;jettySize=auto;html=1;exitX=0.5;exitY=0;exitDx=0;exitDy=0;fontSize=18;fontColor=#0D0D0D;startArrow=classic;startFill=1;endArrow=none;endFill=0;" edge="1" parent="1" source="k2UsZDqhjjsiYEmqu0vV-152">
          <mxGeometry relative="1" as="geometry">
            <mxPoint x="1480" y="320" as="targetPoint" />
            <Array as="points">
              <mxPoint x="1805" y="350" />
              <mxPoint x="1480" y="350" />
            </Array>
          </mxGeometry>
        </mxCell>
        <mxCell id="k2UsZDqhjjsiYEmqu0vV-152" value="Word&#xa;Embedding" style="rounded=1;fillColor=#dae8fc;strokeColor=#6c8ebf;shadow=1;fontStyle=1;fontSize=18;" vertex="1" parent="1">
          <mxGeometry x="1750" y="390" width="110" height="50" as="geometry" />
        </mxCell>
        <mxCell id="k2UsZDqhjjsiYEmqu0vV-153" style="edgeStyle=orthogonalEdgeStyle;rounded=0;orthogonalLoop=1;jettySize=auto;html=1;exitX=0.5;exitY=1;exitDx=0;exitDy=0;fontSize=18;fontColor=#0D0D0D;" edge="1" parent="1" source="k2UsZDqhjjsiYEmqu0vV-154" target="k2UsZDqhjjsiYEmqu0vV-161">
          <mxGeometry relative="1" as="geometry" />
        </mxCell>
        <mxCell id="k2UsZDqhjjsiYEmqu0vV-154" value="LSTM" style="rounded=1;fillColor=#0050ef;strokeColor=#001DBC;shadow=1;fontStyle=1;fontSize=18;fontColor=#ffffff;" vertex="1" parent="1">
          <mxGeometry x="1337" y="490" width="110" height="50" as="geometry" />
        </mxCell>
        <mxCell id="k2UsZDqhjjsiYEmqu0vV-155" style="edgeStyle=orthogonalEdgeStyle;rounded=0;orthogonalLoop=1;jettySize=auto;html=1;exitX=0.5;exitY=1;exitDx=0;exitDy=0;entryX=0.5;entryY=0;entryDx=0;entryDy=0;fontSize=18;fontColor=#0D0D0D;" edge="1" parent="1" source="k2UsZDqhjjsiYEmqu0vV-156" target="k2UsZDqhjjsiYEmqu0vV-165">
          <mxGeometry relative="1" as="geometry" />
        </mxCell>
        <mxCell id="k2UsZDqhjjsiYEmqu0vV-156" value="LSTM" style="rounded=1;fillColor=#0050ef;strokeColor=#001DBC;shadow=1;fontStyle=1;fontSize=18;fontColor=#ffffff;" vertex="1" parent="1">
          <mxGeometry x="1540" y="490" width="110" height="50" as="geometry" />
        </mxCell>
        <mxCell id="k2UsZDqhjjsiYEmqu0vV-157" value="" style="group" vertex="1" connectable="0" parent="1">
          <mxGeometry x="1060" y="490" width="240" height="50" as="geometry" />
        </mxCell>
        <mxCell id="k2UsZDqhjjsiYEmqu0vV-158" value="LSTM" style="rounded=1;fillColor=#0050ef;strokeColor=#001DBC;shadow=1;fontStyle=1;fontSize=18;fontColor=#ffffff;" vertex="1" parent="k2UsZDqhjjsiYEmqu0vV-157">
          <mxGeometry width="110" height="50" as="geometry" />
        </mxCell>
        <mxCell id="k2UsZDqhjjsiYEmqu0vV-159" value="LSTM" style="rounded=1;fillColor=#0050ef;strokeColor=#001DBC;shadow=1;fontStyle=1;fontSize=18;fontColor=#ffffff;" vertex="1" parent="k2UsZDqhjjsiYEmqu0vV-157">
          <mxGeometry x="130" width="110" height="50" as="geometry" />
        </mxCell>
        <mxCell id="k2UsZDqhjjsiYEmqu0vV-160" style="edgeStyle=orthogonalEdgeStyle;rounded=0;orthogonalLoop=1;jettySize=auto;html=1;exitX=0.5;exitY=1;exitDx=0;exitDy=0;entryX=0.5;entryY=0;entryDx=0;entryDy=0;fontSize=18;fontColor=#0D0D0D;" edge="1" parent="1" source="k2UsZDqhjjsiYEmqu0vV-161" target="k2UsZDqhjjsiYEmqu0vV-163">
          <mxGeometry relative="1" as="geometry" />
        </mxCell>
        <mxCell id="k2UsZDqhjjsiYEmqu0vV-161" value="LSTM" style="rounded=1;fillColor=#0050ef;strokeColor=#001DBC;shadow=1;fontStyle=1;fontSize=18;fontColor=#ffffff;" vertex="1" parent="1">
          <mxGeometry x="1337" y="590" width="110" height="50" as="geometry" />
        </mxCell>
        <mxCell id="k2UsZDqhjjsiYEmqu0vV-162" style="edgeStyle=orthogonalEdgeStyle;rounded=0;orthogonalLoop=1;jettySize=auto;html=1;exitX=0.5;exitY=1;exitDx=0;exitDy=0;fontSize=18;fontColor=#0D0D0D;entryX=0.5;entryY=0;entryDx=0;entryDy=0;" edge="1" parent="1" source="k2UsZDqhjjsiYEmqu0vV-163" target="k2UsZDqhjjsiYEmqu0vV-180">
          <mxGeometry relative="1" as="geometry">
            <mxPoint x="1490" y="800" as="targetPoint" />
          </mxGeometry>
        </mxCell>
        <mxCell id="k2UsZDqhjjsiYEmqu0vV-163" value="Attention" style="rounded=1;fillColor=#60a917;strokeColor=#2D7600;shadow=1;fontStyle=1;fontSize=18;fontColor=#ffffff;" vertex="1" parent="1">
          <mxGeometry x="1337" y="690" width="110" height="50" as="geometry" />
        </mxCell>
        <mxCell id="k2UsZDqhjjsiYEmqu0vV-164" style="edgeStyle=orthogonalEdgeStyle;rounded=0;orthogonalLoop=1;jettySize=auto;html=1;exitX=0.5;exitY=1;exitDx=0;exitDy=0;entryX=0.5;entryY=0;entryDx=0;entryDy=0;fontSize=18;fontColor=#0D0D0D;" edge="1" parent="1" source="k2UsZDqhjjsiYEmqu0vV-165" target="k2UsZDqhjjsiYEmqu0vV-167">
          <mxGeometry relative="1" as="geometry" />
        </mxCell>
        <mxCell id="k2UsZDqhjjsiYEmqu0vV-165" value="LSTM" style="rounded=1;fillColor=#0050ef;strokeColor=#001DBC;shadow=1;fontStyle=1;fontSize=18;fontColor=#ffffff;" vertex="1" parent="1">
          <mxGeometry x="1540" y="590" width="110" height="50" as="geometry" />
        </mxCell>
        <mxCell id="k2UsZDqhjjsiYEmqu0vV-166" style="edgeStyle=orthogonalEdgeStyle;rounded=0;orthogonalLoop=1;jettySize=auto;html=1;exitX=0.5;exitY=1;exitDx=0;exitDy=0;fontSize=18;fontColor=#0D0D0D;entryX=0.5;entryY=0;entryDx=0;entryDy=0;" edge="1" parent="1" source="k2UsZDqhjjsiYEmqu0vV-167" target="k2UsZDqhjjsiYEmqu0vV-180">
          <mxGeometry relative="1" as="geometry">
            <mxPoint x="1490" y="800" as="targetPoint" />
          </mxGeometry>
        </mxCell>
        <mxCell id="k2UsZDqhjjsiYEmqu0vV-167" value="Attention" style="rounded=1;fillColor=#60a917;strokeColor=#2D7600;shadow=1;fontStyle=1;fontSize=18;fontColor=#ffffff;" vertex="1" parent="1">
          <mxGeometry x="1540" y="690" width="110" height="50" as="geometry" />
        </mxCell>
        <mxCell id="k2UsZDqhjjsiYEmqu0vV-168" style="edgeStyle=orthogonalEdgeStyle;rounded=0;orthogonalLoop=1;jettySize=auto;html=1;exitX=0.5;exitY=1;exitDx=0;exitDy=0;fontSize=18;fontColor=#0D0D0D;" edge="1" parent="1" source="k2UsZDqhjjsiYEmqu0vV-169" target="k2UsZDqhjjsiYEmqu0vV-175">
          <mxGeometry relative="1" as="geometry" />
        </mxCell>
        <mxCell id="k2UsZDqhjjsiYEmqu0vV-169" value="LSTM" style="rounded=1;fillColor=#0050ef;strokeColor=#001DBC;shadow=1;fontStyle=1;fontSize=18;fontColor=#ffffff;" vertex="1" parent="1">
          <mxGeometry x="1750" y="490" width="110" height="50" as="geometry" />
        </mxCell>
        <mxCell id="k2UsZDqhjjsiYEmqu0vV-170" style="edgeStyle=orthogonalEdgeStyle;rounded=0;orthogonalLoop=1;jettySize=auto;html=1;exitX=0.5;exitY=1;exitDx=0;exitDy=0;fontSize=18;fontColor=#0D0D0D;" edge="1" parent="1" source="k2UsZDqhjjsiYEmqu0vV-171" target="k2UsZDqhjjsiYEmqu0vV-179">
          <mxGeometry relative="1" as="geometry" />
        </mxCell>
        <mxCell id="k2UsZDqhjjsiYEmqu0vV-171" value="Attention" style="rounded=1;fillColor=#60a917;strokeColor=#2D7600;shadow=1;fontStyle=1;fontSize=18;fontColor=#ffffff;" vertex="1" parent="1">
          <mxGeometry x="1060" y="590" width="110" height="50" as="geometry" />
        </mxCell>
        <mxCell id="k2UsZDqhjjsiYEmqu0vV-172" style="edgeStyle=orthogonalEdgeStyle;rounded=0;orthogonalLoop=1;jettySize=auto;html=1;exitX=0.5;exitY=1;exitDx=0;exitDy=0;fontSize=18;fontColor=#0D0D0D;entryX=0.5;entryY=0;entryDx=0;entryDy=0;" edge="1" parent="1" source="k2UsZDqhjjsiYEmqu0vV-173" target="k2UsZDqhjjsiYEmqu0vV-179">
          <mxGeometry relative="1" as="geometry">
            <mxPoint x="1190" y="690" as="targetPoint" />
          </mxGeometry>
        </mxCell>
        <mxCell id="k2UsZDqhjjsiYEmqu0vV-173" value="LSTM" style="rounded=1;fillColor=#0050ef;strokeColor=#001DBC;shadow=1;fontStyle=1;fontSize=18;fontColor=#ffffff;" vertex="1" parent="1">
          <mxGeometry x="1190" y="590" width="110" height="50" as="geometry" />
        </mxCell>
        <mxCell id="k2UsZDqhjjsiYEmqu0vV-174" style="edgeStyle=orthogonalEdgeStyle;rounded=0;orthogonalLoop=1;jettySize=auto;html=1;exitX=0.5;exitY=1;exitDx=0;exitDy=0;fontSize=18;fontColor=#0D0D0D;" edge="1" parent="1" source="k2UsZDqhjjsiYEmqu0vV-175" target="k2UsZDqhjjsiYEmqu0vV-177">
          <mxGeometry relative="1" as="geometry" />
        </mxCell>
        <mxCell id="k2UsZDqhjjsiYEmqu0vV-175" value="LSTM" style="rounded=1;fillColor=#0050ef;strokeColor=#001DBC;shadow=1;fontStyle=1;fontSize=18;fontColor=#ffffff;" vertex="1" parent="1">
          <mxGeometry x="1750" y="590" width="110" height="50" as="geometry" />
        </mxCell>
        <mxCell id="k2UsZDqhjjsiYEmqu0vV-176" style="edgeStyle=orthogonalEdgeStyle;rounded=0;orthogonalLoop=1;jettySize=auto;html=1;exitX=0.5;exitY=1;exitDx=0;exitDy=0;fontSize=18;fontColor=#0D0D0D;entryX=0.5;entryY=0;entryDx=0;entryDy=0;" edge="1" parent="1" source="k2UsZDqhjjsiYEmqu0vV-177" target="k2UsZDqhjjsiYEmqu0vV-180">
          <mxGeometry relative="1" as="geometry">
            <mxPoint x="1490" y="800" as="targetPoint" />
          </mxGeometry>
        </mxCell>
        <mxCell id="k2UsZDqhjjsiYEmqu0vV-177" value="Attention" style="rounded=1;fillColor=#60a917;strokeColor=#2D7600;shadow=1;fontStyle=1;fontSize=18;fontColor=#ffffff;" vertex="1" parent="1">
          <mxGeometry x="1750" y="690" width="110" height="50" as="geometry" />
        </mxCell>
        <mxCell id="k2UsZDqhjjsiYEmqu0vV-178" style="edgeStyle=orthogonalEdgeStyle;rounded=0;orthogonalLoop=1;jettySize=auto;html=1;exitX=0.5;exitY=1;exitDx=0;exitDy=0;fontSize=18;fontColor=#0D0D0D;" edge="1" parent="1" source="k2UsZDqhjjsiYEmqu0vV-179" target="k2UsZDqhjjsiYEmqu0vV-180">
          <mxGeometry relative="1" as="geometry" />
        </mxCell>
        <mxCell id="k2UsZDqhjjsiYEmqu0vV-179" value="Add" style="rounded=1;fillColor=#60a917;strokeColor=#2D7600;shadow=1;fontStyle=1;fontSize=18;fontColor=#ffffff;" vertex="1" parent="1">
          <mxGeometry x="1131" y="690" width="110" height="50" as="geometry" />
        </mxCell>
        <mxCell id="k2UsZDqhjjsiYEmqu0vV-180" value="Add" style="rounded=1;fillColor=#a20025;strokeColor=#6F0000;shadow=1;fontStyle=1;fontSize=18;fontColor=#ffffff;" vertex="1" parent="1">
          <mxGeometry x="1440" y="800" width="110" height="50" as="geometry" />
        </mxCell>
        <mxCell id="k2UsZDqhjjsiYEmqu0vV-181" style="edgeStyle=orthogonalEdgeStyle;rounded=0;orthogonalLoop=1;jettySize=auto;html=1;exitX=0.5;exitY=0;exitDx=0;exitDy=0;fontSize=18;fontColor=#0D0D0D;endArrow=none;endFill=0;entryX=0.5;entryY=1;entryDx=0;entryDy=0;startArrow=classic;startFill=1;" edge="1" parent="1" source="k2UsZDqhjjsiYEmqu0vV-159" target="k2UsZDqhjjsiYEmqu0vV-143">
          <mxGeometry relative="1" as="geometry">
            <mxPoint x="1180" y="450" as="targetPoint" />
          </mxGeometry>
        </mxCell>
        <mxCell id="k2UsZDqhjjsiYEmqu0vV-182" style="edgeStyle=orthogonalEdgeStyle;rounded=0;orthogonalLoop=1;jettySize=auto;html=1;exitX=0.5;exitY=1;exitDx=0;exitDy=0;fontSize=18;fontColor=#0D0D0D;" edge="1" parent="1" source="k2UsZDqhjjsiYEmqu0vV-158" target="k2UsZDqhjjsiYEmqu0vV-171">
          <mxGeometry relative="1" as="geometry" />
        </mxCell>
        <mxCell id="k2UsZDqhjjsiYEmqu0vV-183" style="edgeStyle=orthogonalEdgeStyle;rounded=0;orthogonalLoop=1;jettySize=auto;html=1;exitX=0.5;exitY=1;exitDx=0;exitDy=0;entryX=0.5;entryY=0;entryDx=0;entryDy=0;fontSize=18;fontColor=#0D0D0D;" edge="1" parent="1" source="k2UsZDqhjjsiYEmqu0vV-159" target="k2UsZDqhjjsiYEmqu0vV-173">
          <mxGeometry relative="1" as="geometry" />
        </mxCell>
        <mxCell id="k2UsZDqhjjsiYEmqu0vV-189" style="rounded=0;orthogonalLoop=1;jettySize=auto;html=1;exitX=0.5;exitY=0;exitDx=0;exitDy=0;entryX=0.5;entryY=1;entryDx=0;entryDy=0;fontSize=18;fontColor=#0D0D0D;startArrow=classic;startFill=1;endArrow=none;endFill=0;" edge="1" parent="1" source="k2UsZDqhjjsiYEmqu0vV-184" target="k2UsZDqhjjsiYEmqu0vV-111">
          <mxGeometry relative="1" as="geometry" />
        </mxCell>
        <mxCell id="k2UsZDqhjjsiYEmqu0vV-190" style="rounded=0;orthogonalLoop=1;jettySize=auto;html=1;exitX=0.5;exitY=0;exitDx=0;exitDy=0;entryX=0.5;entryY=1;entryDx=0;entryDy=0;fontSize=18;fontColor=#0D0D0D;startArrow=classic;startFill=1;endArrow=none;endFill=0;" edge="1" parent="1" source="k2UsZDqhjjsiYEmqu0vV-184" target="k2UsZDqhjjsiYEmqu0vV-180">
          <mxGeometry relative="1" as="geometry" />
        </mxCell>
        <mxCell id="k2UsZDqhjjsiYEmqu0vV-184" value="abs" style="rounded=1;fillColor=#e3c800;strokeColor=#B09500;shadow=1;fontStyle=1;fontSize=18;fontColor=#000000;" vertex="1" parent="1">
          <mxGeometry x="740" y="950" width="110" height="50" as="geometry" />
        </mxCell>
        <mxCell id="k2UsZDqhjjsiYEmqu0vV-193" style="rounded=0;orthogonalLoop=1;jettySize=auto;html=1;exitX=0.5;exitY=0;exitDx=0;exitDy=0;entryX=0.5;entryY=1;entryDx=0;entryDy=0;fontSize=18;fontColor=#0D0D0D;startArrow=classic;startFill=1;endArrow=none;endFill=0;" edge="1" parent="1" source="k2UsZDqhjjsiYEmqu0vV-185" target="k2UsZDqhjjsiYEmqu0vV-111">
          <mxGeometry relative="1" as="geometry" />
        </mxCell>
        <mxCell id="k2UsZDqhjjsiYEmqu0vV-194" style="rounded=0;orthogonalLoop=1;jettySize=auto;html=1;exitX=0.5;exitY=0;exitDx=0;exitDy=0;entryX=0.5;entryY=1;entryDx=0;entryDy=0;fontSize=18;fontColor=#0D0D0D;startArrow=classic;startFill=1;endArrow=none;endFill=0;" edge="1" parent="1" source="k2UsZDqhjjsiYEmqu0vV-185" target="k2UsZDqhjjsiYEmqu0vV-180">
          <mxGeometry relative="1" as="geometry" />
        </mxCell>
        <mxCell id="k2UsZDqhjjsiYEmqu0vV-185" value="multi" style="rounded=1;fillColor=#e3c800;strokeColor=#B09500;shadow=1;fontStyle=1;fontSize=18;fontColor=#000000;" vertex="1" parent="1">
          <mxGeometry x="1310" y="950" width="110" height="50" as="geometry" />
        </mxCell>
        <mxCell id="k2UsZDqhjjsiYEmqu0vV-191" style="rounded=0;orthogonalLoop=1;jettySize=auto;html=1;exitX=0.5;exitY=0;exitDx=0;exitDy=0;entryX=0.5;entryY=1;entryDx=0;entryDy=0;fontSize=18;fontColor=#0D0D0D;startArrow=classic;startFill=1;endArrow=none;endFill=0;" edge="1" parent="1" source="k2UsZDqhjjsiYEmqu0vV-186" target="k2UsZDqhjjsiYEmqu0vV-111">
          <mxGeometry relative="1" as="geometry" />
        </mxCell>
        <mxCell id="k2UsZDqhjjsiYEmqu0vV-192" style="rounded=0;orthogonalLoop=1;jettySize=auto;html=1;exitX=0.5;exitY=0;exitDx=0;exitDy=0;entryX=0.5;entryY=1;entryDx=0;entryDy=0;fontSize=18;fontColor=#0D0D0D;startArrow=classic;startFill=1;endArrow=none;endFill=0;" edge="1" parent="1" source="k2UsZDqhjjsiYEmqu0vV-186" target="k2UsZDqhjjsiYEmqu0vV-180">
          <mxGeometry relative="1" as="geometry" />
        </mxCell>
        <mxCell id="k2UsZDqhjjsiYEmqu0vV-186" value="cos" style="rounded=1;fillColor=#e3c800;strokeColor=#B09500;shadow=1;fontStyle=1;fontSize=18;fontColor=#000000;" vertex="1" parent="1">
          <mxGeometry x="1025" y="950" width="110" height="50" as="geometry" />
        </mxCell>
        <mxCell id="k2UsZDqhjjsiYEmqu0vV-196" style="rounded=0;orthogonalLoop=1;jettySize=auto;html=1;exitX=0.5;exitY=0;exitDx=0;exitDy=0;entryX=0.5;entryY=1;entryDx=0;entryDy=0;fontSize=18;fontColor=#0D0D0D;startArrow=classic;startFill=1;endArrow=none;endFill=0;" edge="1" parent="1" source="k2UsZDqhjjsiYEmqu0vV-195" target="k2UsZDqhjjsiYEmqu0vV-184">
          <mxGeometry relative="1" as="geometry" />
        </mxCell>
        <mxCell id="k2UsZDqhjjsiYEmqu0vV-197" style="edgeStyle=orthogonalEdgeStyle;rounded=0;orthogonalLoop=1;jettySize=auto;html=1;exitX=0.5;exitY=0;exitDx=0;exitDy=0;entryX=0.5;entryY=1;entryDx=0;entryDy=0;fontSize=18;fontColor=#0D0D0D;startArrow=classic;startFill=1;endArrow=none;endFill=0;" edge="1" parent="1" source="k2UsZDqhjjsiYEmqu0vV-195" target="k2UsZDqhjjsiYEmqu0vV-186">
          <mxGeometry relative="1" as="geometry" />
        </mxCell>
        <mxCell id="k2UsZDqhjjsiYEmqu0vV-198" style="rounded=0;orthogonalLoop=1;jettySize=auto;html=1;exitX=0.5;exitY=0;exitDx=0;exitDy=0;entryX=0.5;entryY=1;entryDx=0;entryDy=0;fontSize=18;fontColor=#0D0D0D;startArrow=classic;startFill=1;endArrow=none;endFill=0;" edge="1" parent="1" source="k2UsZDqhjjsiYEmqu0vV-195" target="k2UsZDqhjjsiYEmqu0vV-185">
          <mxGeometry relative="1" as="geometry" />
        </mxCell>
        <mxCell id="k2UsZDqhjjsiYEmqu0vV-195" value="concat" style="rounded=1;fillColor=#fad9d5;strokeColor=#ae4132;shadow=1;fontStyle=1;fontSize=18;" vertex="1" parent="1">
          <mxGeometry x="1025" y="1065" width="110" height="50" as="geometry" />
        </mxCell>
        <mxCell id="k2UsZDqhjjsiYEmqu0vV-200" style="edgeStyle=none;rounded=0;orthogonalLoop=1;jettySize=auto;html=1;exitX=0.5;exitY=0;exitDx=0;exitDy=0;fontSize=18;fontColor=#0D0D0D;startArrow=classic;startFill=1;endArrow=none;endFill=0;entryX=0.5;entryY=1;entryDx=0;entryDy=0;" edge="1" parent="1" source="k2UsZDqhjjsiYEmqu0vV-199" target="k2UsZDqhjjsiYEmqu0vV-195">
          <mxGeometry relative="1" as="geometry">
            <mxPoint x="1080" y="1120" as="targetPoint" />
          </mxGeometry>
        </mxCell>
        <mxCell id="k2UsZDqhjjsiYEmqu0vV-199" value="MLP" style="rounded=1;fillColor=#bac8d3;strokeColor=#23445d;shadow=1;fontStyle=1;fontSize=18;" vertex="1" parent="1">
          <mxGeometry x="1025" y="1180" width="110" height="50" as="geometry" />
        </mxCell>
      </root>
    </mxGraphModel>
  </diagram>
</mxfile>
